<?xml version="1.0" encoding="UTF-8"?>
<!DOCTYPE svg PUBLIC "-//W3C//DTD SVG 1.1//EN" "http://www.w3.org/Graphics/SVG/1.1/DTD/svg11.dtd">
<!-- Creator: CorelDRAW X6 -->
<svg xmlns="http://www.w3.org/2000/svg" xml:space="preserve" width="6.90278in" height="8.79166in" version="1.1" style="shape-rendering:geometricPrecision; text-rendering:geometricPrecision; image-rendering:optimizeQuality; fill-rule:evenodd; clip-rule:evenodd"
viewBox="0 0 6903 8792"
 xmlns:xlink="http://www.w3.org/1999/xlink">
 <defs>
  <style type="text/css">
   <![CDATA[
    .fil5 {fill:#424242;fill-rule:nonzero}
    .fil4 {fill:#5AAFE1;fill-rule:nonzero}
    .fil3 {fill:#884F9A;fill-rule:nonzero}
    .fil1 {fill:#EF4B39;fill-rule:nonzero}
    .fil0 {fill:#F3E9E3;fill-rule:nonzero}
    .fil2 {fill:#F7B5C1;fill-rule:nonzero}
   ]]>
  </style>
 </defs>
 <g id="Layer_x0020_1">
  <metadata id="CorelCorpID_0Corel-Layer"/>
  <polygon class="fil0" points="0,8792 6903,8792 6903,-7 0,-7 "/>
  <path class="fil1" d="M3936 3617c9,5 20,8 32,8 8,0 15,-1 22,-4 15,-5 28,-16 35,-30 5,-9 8,-20 8,-31 0,-12 -3,-23 -9,-33 -8,-14 -21,-24 -36,-29 -6,-2 -13,-3 -20,-3 -36,0 -65,29 -65,65 0,8 1,15 4,21 5,15 16,28 30,36z"/>
  <polygon class="fil2" points="2993,3702 3274,3401 3077,3193 2803,3482 "/>
  <polygon class="fil3" points="2713,4264 2809,4382 3176,4006 2886,3669 "/>
  <polygon class="fil2" points="2768,4425 2559,4169 2501,4698 "/>
  <polygon class="fil4" points="3036,3149 2707,2800 2652,3307 2764,3437 "/>
  <polygon class="fil2" points="3491,4091 3739,4374 3922,4186 3535,3689 "/>
  <path class="fil3" d="M3689 3790l161 -164c-11,-20 -18,-42 -18,-67 0,-75 61,-135 135,-135 23,0 46,6 65,17l90 -91 -490 -539 -88 794 145 186z"/>
  <path class="fil4" d="M4103 3560c0,30 -10,58 -27,81l178 204 33 -34 131 -135 -256 -281 -85 87c16,22 26,50 26,79z"/>
  <polygon class="fil3" points="3423,4700 3698,4417 3482,4171 "/>
  <path class="fil4" d="M4617 4499l-34 78 94 169c315,-123 285,-187 285,-187l-77 -224c3,12 -21,25 -21,25l-247 139z"/>
  <path class="fil4" d="M4577 4291c-22,-16 -44,-26 -57,-29l-86 172c71,32 108,101 124,140l77 -175c3,-50 -26,-84 -58,-107z"/>
  <path class="fil5" d="M5303 6786c-96,227 -234,431 -409,606 -175,175 -379,313 -606,409 -235,99 -485,150 -743,150 -258,0 -507,-50 -743,-150 -227,-96 -431,-234 -606,-409 -175,-175 -313,-379 -409,-606 -99,-235 -150,-485 -150,-743l-44 0c0,264 52,519 153,760 98,232 239,441 418,621 179,179 388,320 621,418 241,102 496,153 760,153 264,0 519,-52 760,-153 232,-98 441,-239 621,-418 179,-179 320,-388 418,-621 102,-241 153,-496 153,-760l-45 0c0,258 -50,507 -150,743z"/>
  <path class="fil5" d="M1637 2714c0,-258 50,-507 150,-743 96,-227 234,-431 409,-606 175,-175 379,-313 606,-409 235,-99 485,-150 743,-150 258,0 507,50 743,150 227,96 431,234 606,409 175,175 313,379 409,606 99,235 150,485 150,743l0 1590 45 0 0 -1590c0,-264 -52,-519 -153,-760 -98,-232 -239,-441 -418,-621 -179,-179 -388,-320 -621,-418 -241,-102 -496,-153 -760,-153 -264,0 -519,52 -760,153 -232,98 -441,239 -621,418 -179,179 -320,388 -418,621 -102,241 -153,496 -153,760l0 1893 44 0 0 -1893z"/>
  <polygon class="fil5" points="1808,6264 1937,6268 1937,6269 1814,6307 1817,6333 2015,6336 2011,6307 1883,6310 1883,6310 2007,6270 2004,6249 1877,6243 1877,6243 1999,6212 1995,6183 1804,6238 "/>
  <polygon class="fil5" points="1944,6508 1969,6501 1957,6454 2013,6440 2027,6494 2053,6487 2032,6406 1842,6455 1863,6536 1890,6529 1876,6475 1932,6461 "/>
  <polygon class="fil5" points="2075,6557 1891,6625 1921,6704 1947,6694 1927,6642 2085,6583 "/>
  <polygon class="fil5" points="2134,6703 1958,6790 1995,6865 2021,6853 1996,6803 2146,6728 "/>
  <polygon class="fil5" points="2223,6867 2209,6843 2041,6945 2056,6969 "/>
  <polygon class="fil5" points="2170,7132 2327,7015 2310,6993 2215,7063 2215,7063 2284,6958 2268,6936 2111,7054 2128,7076 2222,7006 2223,7006 2154,7111 "/>
  <path class="fil5" d="M2381 7162l19 21 7 -7c6,-5 10,-11 12,-17 3,-6 4,-12 4,-18 0,-6 -2,-12 -4,-17 -2,-5 -5,-10 -9,-14 -4,-4 -9,-8 -14,-10 -5,-3 -11,-4 -17,-5 -6,-1 -12,0 -19,2 -6,2 -12,6 -18,11l-76 71c-6,6 -10,11 -13,18 -2,6 -3,12 -3,18 0,6 1,12 4,17 2,5 5,10 9,14 4,4 8,8 14,10 5,3 11,4 17,5 6,1 12,0 18,-2 6,-2 12,-6 18,-11l45 -42 -34 -37 -18 17 15 16 -27 25c-5,5 -10,7 -15,6 -5,-1 -9,-3 -13,-6 -4,-4 -5,-8 -6,-13 0,-5 2,-10 7,-14l76 -71c5,-5 10,-7 15,-6 5,1 9,3 13,6 4,4 5,8 6,13 0,5 -2,10 -7,14l-7 7z"/>
  <polygon class="fil5" points="2518,7250 2542,7271 2560,7251 2489,7190 2472,7210 2496,7231 2385,7359 2406,7378 "/>
  <path class="fil5" d="M2545 7429l60 -84c4,-6 8,-9 13,-9 5,0 9,1 14,4 4,3 7,7 8,12 1,5 0,10 -4,16l-60 84c-4,6 -8,9 -13,9 -5,0 -9,-1 -14,-4 -4,-3 -7,-7 -8,-12 -1,-5 0,-10 4,-16zm-24 38c3,5 7,9 12,12 5,3 10,6 16,7 6,2 12,2 18,1 6,-1 12,-2 17,-6 6,-3 11,-8 16,-15l60 -84c5,-6 8,-13 9,-19 1,-7 1,-13 0,-19 -2,-6 -4,-11 -7,-16 -3,-5 -7,-9 -12,-12 -5,-3 -10,-6 -16,-7 -6,-2 -12,-2 -17,-2 -6,1 -12,3 -18,6 -6,3 -11,8 -16,15l-60 84c-5,7 -8,13 -9,20 -1,6 -1,12 1,18 1,6 4,11 7,16z"/>
  <polygon class="fil5" points="2743,7606 2838,7434 2813,7421 2756,7524 2756,7524 2776,7400 2752,7387 2657,7558 2682,7572 2739,7469 2739,7469 2720,7593 "/>
  <polygon class="fil5" points="3012,7592 3013,7593 3016,7718 3042,7726 3103,7540 3076,7531 3039,7643 3039,7643 3036,7518 3010,7509 2948,7696 2975,7704 "/>
  <polygon class="fil5" points="3254,7576 3175,7559 3169,7585 3218,7595 3136,7726 3131,7750 3212,7768 3218,7742 3165,7731 3249,7598 "/>
  <path class="fil5" d="M3507 7655c-6,-3 -12,-4 -19,-5 -7,0 -13,1 -19,3 -6,2 -11,6 -16,10 -5,4 -8,9 -11,15 -3,6 -4,12 -5,19 0,7 1,13 3,19 2,6 6,11 10,16 4,5 9,8 15,11 6,3 12,4 19,5 7,0 13,-1 19,-3 6,-2 11,-6 16,-10 5,-4 8,-9 11,-15 3,-6 4,-12 5,-19 0,-7 -1,-13 -3,-19 -2,-6 -6,-11 -10,-16 -4,-5 -9,-8 -15,-11z"/>
  <polygon class="fil5" points="3764,7587 3739,7612 3743,7641 3768,7617 3792,7782 3820,7778 3792,7583 "/>
  <path class="fil5" d="M3928 7730l6 26 81 -20 -7 -27 -49 12 21 -87c1,-5 2,-9 2,-12 1,-3 1,-6 1,-9 0,-3 -1,-6 -1,-9 -1,-3 -2,-7 -3,-12 -2,-6 -4,-12 -7,-18 -3,-5 -7,-10 -11,-13 -5,-4 -10,-6 -15,-7 -6,-1 -12,-1 -19,1 -6,1 -11,4 -15,7 -4,3 -8,8 -11,12 -3,5 -5,10 -6,15 -1,6 -1,11 1,17l4 15 27 -7 -4 -16c-1,-4 -1,-8 1,-11 2,-3 5,-5 9,-6 3,-1 6,-1 8,0 2,1 4,2 5,4 1,2 2,4 3,6 1,3 1,5 2,7 1,5 2,10 3,13 1,4 0,8 -1,13l-26 105z"/>
  <polygon class="fil5" points="4165,7620 4156,7594 4078,7622 4087,7648 "/>
  <polygon class="fil5" points="4220,7450 4204,7480 4217,7507 4233,7476 4306,7626 4331,7613 4245,7437 "/>
  <path class="fil5" d="M4456 7513c-4,2 -7,3 -11,2 -4,-1 -7,-3 -9,-7l-4 -6 -24 15 4 7c4,6 8,10 12,13 5,3 10,5 15,6 5,1 10,1 16,0 5,-1 10,-3 15,-6 5,-3 9,-7 12,-11 3,-4 6,-9 7,-14 1,-5 2,-11 1,-16 -1,-6 -3,-11 -6,-17l-27 -43c-6,-10 -13,-16 -21,-17 -8,-2 -16,0 -24,5 -4,3 -8,6 -10,9 -3,4 -4,7 -5,11l-28 -45 47 -29 -14 -22 -68 43 56 90 21 -13c0,0 0,-2 0,-3 0,-1 0,-3 0,-4 0,-2 1,-3 2,-5 1,-2 2,-3 4,-4 3,-2 7,-3 10,-2 4,1 6,3 8,6l24 39c2,4 3,8 3,11 -1,3 -3,6 -6,8z"/>
  <polygon class="fil5" points="4734,7333 4754,7315 4622,7170 4601,7189 4681,7276 4680,7277 4569,7217 4549,7236 4681,7381 4702,7362 4623,7275 4623,7274 "/>
  <path class="fil5" d="M4723 7110c0,-5 2,-9 5,-13 3,-4 8,-6 12,-7 5,-1 10,1 15,6l77 69c5,5 8,9 7,14 0,5 -2,9 -5,13 -3,4 -8,6 -12,7 -5,1 -10,-1 -15,-6l-77 -69c-5,-5 -8,-9 -7,-14zm85 115c6,2 12,2 18,1 6,-1 12,-2 17,-5 5,-3 10,-6 14,-11 4,-4 7,-9 9,-15 2,-6 3,-11 3,-17 0,-6 -1,-12 -4,-18 -3,-6 -7,-12 -13,-17l-77 -69c-6,-5 -12,-9 -18,-11 -6,-2 -13,-3 -18,-2 -6,1 -12,3 -17,6 -5,3 -10,6 -14,11 -4,4 -7,9 -9,15 -2,6 -3,11 -3,17 0,6 1,12 4,18 3,6 7,12 13,17l77 69c6,5 12,9 19,11z"/>
  <polygon class="fil5" points="4978,7054 4842,6907 4825,6931 4923,7029 4923,7030 4798,6968 4781,6993 4964,7074 "/>
  <path class="fil5" d="M4979 6721c2,-1 4,-2 6,-2 2,0 5,1 7,2 2,1 5,2 7,3 5,2 9,4 12,6 3,2 6,5 9,9l64 87 24 11 36 -76 -25 -12 -22 46 -54 -72c-3,-4 -5,-7 -7,-9 -2,-2 -4,-5 -7,-6 -2,-2 -5,-3 -8,-5 -3,-2 -6,-3 -11,-5 -6,-3 -12,-5 -18,-6 -6,-1 -12,-1 -17,0 -6,1 -11,4 -15,7 -5,4 -9,9 -12,15 -3,5 -4,11 -4,16 0,6 1,11 3,16 2,5 5,10 8,14 4,4 8,8 14,10l14 7 12 -25 -14 -7c-4,-2 -7,-5 -8,-8 -1,-3 -1,-7 1,-11 2,-3 3,-5 5,-6z"/>
  <path class="fil5" d="M5152 6636l-108 -39c-4,-1 -7,-4 -8,-7 -2,-3 -2,-7 0,-11 1,-4 4,-6 7,-8 3,-2 7,-2 11,0l109 39c4,1 7,4 8,7 2,3 2,7 0,11 -1,4 -4,6 -7,8 -3,2 -7,2 -11,0zm24 25c5,-2 9,-6 12,-10 4,-4 6,-9 8,-14 2,-5 3,-10 3,-16 0,-5 -1,-11 -3,-15 -2,-5 -5,-9 -9,-13 -4,-4 -9,-7 -15,-9l-109 -39c-6,-2 -12,-3 -18,-3 -6,0 -11,2 -16,4 -5,2 -9,6 -12,10 -4,4 -6,9 -8,14 -2,5 -3,11 -3,16 0,5 1,11 3,15 2,5 5,9 9,13 4,4 9,7 15,9l108 39c6,2 12,3 18,3 6,0 11,-2 16,-4z"/>
  <polygon class="fil5" points="5250,6447 5060,6400 5053,6428 5066,6460 5095,6467 5082,6435 5243,6474 "/>
  <path class="fil5" d="M5169 6286c-3,2 -6,3 -11,3l-36 -5c-4,-1 -7,-2 -10,-5 -2,-3 -3,-6 -3,-10 1,-4 2,-7 5,-9 3,-2 6,-3 11,-3l36 5c4,1 7,2 10,5 2,3 3,6 3,10 -1,4 -2,7 -5,9zm105 37l4 -31 -93 -50c-2,-1 -5,-2 -7,-3 -2,-1 -5,-2 -8,-3 -3,-1 -6,-1 -10,-2 -4,-1 -9,-2 -15,-2 -6,-1 -12,-2 -16,-2 -4,0 -8,-1 -11,-1 -3,0 -5,1 -7,1 -2,1 -4,1 -7,2 -6,3 -12,7 -16,13 -4,6 -7,12 -8,20 -1,8 0,15 2,21 2,7 6,12 12,17 2,2 4,3 6,4 2,1 4,2 7,3 3,1 6,2 10,3 4,1 9,2 16,2 8,1 14,2 19,2 5,1 9,1 13,1 3,0 6,0 8,-1 2,0 4,-1 6,-2 4,-2 7,-5 10,-9 3,-4 5,-8 5,-13 0,-3 1,-6 0,-8 0,-2 -1,-3 -1,-4l1 0 77 43z"/>
  <path class="fil5" d="M2646 6570c0,-14 4,-25 12,-32 8,-7 17,-10 28,-10 11,0 20,3 28,10 8,7 12,17 12,32l0 218c0,14 -4,25 -12,32 -8,7 -17,10 -28,10 -11,0 -20,-3 -28,-10 -8,-7 -12,-17 -12,-32l0 -218zm-27 294c9,9 20,15 32,19 12,4 24,6 36,6 12,0 24,-2 36,-6 12,-4 23,-11 32,-19 9,-8 17,-18 23,-31 6,-12 9,-27 9,-45l0 -218c0,-17 -3,-31 -9,-44 -6,-13 -13,-23 -23,-32 -10,-8 -20,-14 -32,-19 -12,-4 -24,-6 -36,-6 -12,0 -24,2 -36,6 -12,4 -22,10 -32,19 -10,9 -17,19 -23,32 -6,13 -9,27 -9,44l0 218c0,17 3,32 9,45 6,12 14,23 23,31z"/>
  <path class="fil5" d="M3084 6591l0 -23c0,-14 -2,-28 -7,-40 -5,-12 -12,-23 -20,-32 -17,-18 -40,-27 -68,-27 -14,0 -27,2 -39,7 -12,5 -22,12 -30,20 -9,9 -15,19 -20,30 -5,12 -7,24 -7,38l0 228c0,19 3,35 9,47 6,12 14,22 23,30 9,8 20,13 31,16 12,3 23,5 34,5 13,0 25,-3 37,-8 11,-5 21,-12 30,-21 9,-9 15,-19 20,-30 5,-11 7,-24 7,-36l0 -26 -59 0 0 20c0,8 -1,15 -3,20 -2,5 -5,10 -9,13 -4,3 -8,5 -12,7 -4,1 -9,2 -12,2 -14,0 -23,-4 -28,-12 -5,-8 -8,-18 -8,-30l0 -211c0,-14 2,-25 7,-35 5,-9 15,-14 29,-14 11,0 20,4 27,13 7,9 10,19 10,30l0 20 59 0z"/>
  <polygon class="fil5" points="3366,6529 3366,6473 3190,6473 3190,6886 3366,6886 3366,6827 3249,6827 3249,6706 3351,6706 3351,6650 3249,6650 3249,6529 "/>
  <path class="fil5" d="M3523 6742l29 -150 1 0 29 150 -59 0zm88 145l59 0 -92 -413 -49 0 -92 413 59 0 17 -89 81 0 17 89z"/>
  <polygon class="fil5" points="3961,6886 3961,6473 3902,6473 3902,6722 3901,6722 3811,6473 3755,6473 3755,6886 3814,6886 3814,6638 3815,6638 3905,6886 "/>
  <polygon class="fil5" points="4074,6886 4134,6886 4134,6473 4074,6473 "/>
  <path class="fil5" d="M4309 6742l29 -150 1 0 29 150 -59 0zm88 145l59 0 -92 -413 -49 0 -92 413 59 0 17 -89 81 0 17 89z"/>
  <path class="fil5" d="M5575 4731c-40,46 -145,168 -267,292 -91,92 -172,167 -242,224l-3463 0 0 4c-32,-30 -55,-67 -62,-112l3442 0 488 -486 105 75 1 1c0,0 -1,1 -1,1zm-715 642c-458,0 -2916,-5 -2994,-5 -14,-2 -122,-21 -210,-76l3352 0c-60,43 -110,70 -148,80zm-2979 -389l456 0 -13 111 -443 0 0 -111zm1497 -1033l-113 989 -843 0 957 -989zm-996 1033l877 0 -13 111 -877 0 13 -111zm925 -8l47 -48 700 0 -32 168 -730 0 14 -121 1 1zm1023 -48l0 168 -263 0 32 -168 231 0zm1136 -331l-501 499 -590 0 0 -168 190 0 0 -44 -457 0 36 -189c251,37 379,-62 405,-82 -1,-2 -2,-3 -3,-5 0,0 -2,-7 -7,-19 -12,-30 -39,-86 -88,-119 -48,32 -146,5 -262,-15l9 -47 -44 -8 -92 484 -665 0 1262 -1300 -32 -31 -1313 1353 290 -2529 -44 -5 -136 1186 -108 -113 -283 303 185 215 180 -185 -11 100 -995 1028 282 -2445 10 -86 -44 -5 -13 112 -283 2456 -727 0 0 44 221 0 0 111 -344 0 1 23c3,122 95,195 186,238 87,41 174,55 181,56l3 0c25,0 2543,5 2999,5l3 0 3 -1c190,-46 542,-428 690,-597 39,-44 64,-74 68,-80l15 -18 -58 -41 -118 -84z"/>
  <polygon class="fil5" points="2568,4086 2667,4208 2840,3615 2643,3387 "/>
  <path class="fil5" d="M4213 3887l-181 -208c-19,10 -41,16 -63,16 -29,0 -56,-9 -78,-25l-164 167 238 306 249 -256z"/>
  <path class="fil5" d="M4632 4463l219 -124c0,-1 1,-1 1,-1 3,-2 6,-4 8,-6 8,-6 1,-8 1,-8 -3,-1 -10,0 -10,0 -117,26 -180,14 -209,3 11,20 17,44 16,72l-1 4 -26 58z"/>
  <path class="fil5" d="M4871 5686c-39,-24 -82,-52 -166,-52 -83,0 -127,27 -166,52 -37,23 -71,45 -142,45 -71,0 -105,-22 -142,-45 -39,-24 -82,-52 -166,-52 -83,0 -127,27 -166,52 -37,23 -71,45 -142,45 -70,0 -105,-22 -142,-45 -39,-24 -82,-52 -166,-52 -83,0 -127,27 -166,52 -37,23 -71,45 -142,45 -70,0 -105,-22 -142,-45 -39,-24 -82,-52 -166,-52 -83,0 -127,27 -166,52 -37,23 -71,45 -142,45 -70,0 -105,-22 -142,-45 -39,-24 -82,-52 -166,-52 -83,0 -127,27 -166,52 -37,23 -71,45 -142,45 0,0 0,0 0,0 12,14 25,28 37,42 60,-7 96,-29 128,-50 37,-23 71,-45 142,-45 70,0 105,22 142,45 39,24 82,52 166,52 83,0 127,-27 166,-52 37,-23 71,-45 142,-45 70,0 105,22 142,45 39,24 82,52 166,52 83,0 127,-27 166,-52 37,-23 71,-45 142,-45 70,0 105,22 142,45 39,24 82,52 166,52 83,0 127,-27 166,-52 37,-23 71,-45 142,-45 70,0 105,22 142,45 39,24 82,52 166,52 83,0 127,-27 166,-52 37,-23 71,-45 142,-45 71,0 105,22 142,45 39,24 82,52 166,52 20,0 37,-2 53,-4 20,-22 39,-44 58,-66 -28,15 -60,26 -110,26 -71,0 -105,-22 -142,-45z"/>
  <path class="fil5" d="M4705 5946c66,0 100,19 134,40 12,-10 24,-20 36,-30 -2,-1 -3,-2 -5,-3 -39,-24 -82,-52 -166,-52 -83,0 -127,27 -166,52 -37,23 -71,45 -142,45 -71,0 -105,-22 -142,-45 -39,-24 -82,-52 -166,-52 -83,0 -127,27 -166,52 -37,23 -71,45 -142,45 -70,0 -105,-22 -142,-45 -39,-24 -82,-52 -166,-52 -83,0 -127,27 -166,52 -37,23 -71,45 -142,45 -70,0 -105,-22 -142,-45 -39,-24 -82,-52 -166,-52 -83,0 -127,27 -166,52 -37,23 -71,45 -142,45 -70,0 -105,-22 -142,-45 -39,-24 -82,-52 -166,-52 -51,0 -88,10 -117,24 12,11 25,22 38,33 21,-7 46,-12 79,-12 70,0 105,22 142,45 39,24 82,52 166,52 83,0 127,-27 166,-52 37,-23 71,-45 142,-45 70,0 105,22 142,45 39,24 82,52 166,52 83,0 127,-27 166,-52 37,-23 71,-45 142,-45 70,0 105,22 142,45 39,24 82,52 166,52 83,0 127,-27 166,-52 37,-23 71,-45 142,-45 70,0 105,22 142,45 39,24 82,52 166,52 83,0 127,-27 166,-52 37,-23 71,-45 142,-45z"/>
  <polygon class="fil5" points="2724,1179 2590,1261 2717,1472 2749,1452 2695,1362 2782,1309 2765,1281 2678,1334 2640,1272 2743,1210 "/>
  <path class="fil5" d="M2961 1133c2,-6 6,-12 11,-17 5,-5 11,-9 20,-12 9,-3 16,-4 24,-3 7,1 13,4 18,7 6,3 12,9 16,16 4,8 11,23 18,46 8,23 12,39 14,47 1,9 0,16 -3,23 -2,6 -5,12 -10,16 -5,6 -12,10 -20,13 -8,3 -16,4 -23,2 -7,-1 -13,-3 -19,-7 -6,-3 -12,-9 -16,-17 -4,-8 -11,-23 -19,-46 -8,-23 -12,-39 -13,-48 -1,-8 0,-16 2,-22zm12 155c9,9 22,15 37,19 15,4 32,4 50,-2 18,-7 32,-17 42,-29 9,-12 15,-25 17,-38 2,-7 2,-15 0,-25 -2,-10 -7,-28 -16,-55 -9,-27 -16,-45 -21,-54 -5,-9 -10,-15 -16,-19 -9,-9 -21,-15 -36,-20 -15,-4 -32,-3 -51,3 -18,7 -32,16 -41,29 -10,13 -15,25 -17,38 -2,7 -2,15 0,25 2,10 7,28 16,55 9,27 16,44 21,53 3,5 5,9 7,11 2,3 5,6 8,8z"/>
  <path class="fil5" d="M3373 1235c56,-7 82,-34 78,-81 -2,-17 -9,-32 -21,-44 -12,-12 -30,-18 -54,-19 -12,0 -21,0 -28,-1 -12,-1 -22,-4 -28,-9 -6,-5 -10,-11 -10,-18 -1,-12 2,-21 9,-28 7,-7 16,-11 28,-12 22,-2 43,2 63,12l17 -33c-24,-14 -52,-19 -82,-16 -25,3 -44,12 -56,26 -13,15 -18,33 -15,54 2,18 9,32 22,43 12,11 29,17 51,18 12,0 23,1 33,1 22,1 34,11 36,29 2,22 -13,36 -44,40 -27,3 -51,-3 -72,-16l-21 31c29,19 61,27 97,23z"/>
  <path class="fil5" d="M3692 1195c-27,-3 -49,-13 -67,-31l-27 26c24,25 54,39 90,43 56,5 87,-16 93,-63 2,-17 -2,-33 -12,-47 -10,-14 -26,-24 -49,-30 -12,-3 -21,-5 -27,-6 -12,-3 -20,-8 -25,-15 -5,-6 -7,-13 -6,-20 1,-12 6,-20 15,-25 8,-5 18,-7 29,-6 22,3 42,11 59,25l24 -29c-21,-18 -47,-29 -77,-33 -25,-2 -46,3 -61,14 -15,12 -24,28 -26,50 -2,18 3,34 13,47 10,13 25,22 46,28 12,3 22,5 32,8 21,6 31,18 29,36 -3,22 -20,32 -52,30z"/>
  <polygon class="fil5" points="4059,1054 3929,1198 3919,1230 4017,1260 4006,1295 4040,1306 4051,1270 4070,1276 4079,1244 4061,1239 4081,1171 4048,1161 4027,1228 3965,1210 4097,1065 "/>
  <path class="fil5" d="M4426 1296c7,-20 7,-40 0,-59 -6,-19 -20,-35 -41,-47 -17,-9 -33,-13 -49,-11 -16,1 -29,6 -40,13 -6,3 -12,9 -19,17 -6,8 -16,24 -30,49 -14,25 -22,42 -25,51 -2,5 -3,9 -3,13 0,4 -1,8 -1,12 0,13 3,26 11,40 7,14 19,26 36,36 22,12 45,14 67,8 22,-7 40,-21 52,-42l24 -44 -77 -42 -17 31 44 24 -6 11c-8,13 -18,22 -31,26 -13,4 -26,3 -39,-4 -8,-4 -13,-10 -17,-16 -4,-6 -7,-12 -8,-18 -2,-7 -1,-15 2,-23 3,-8 10,-23 21,-44 12,-21 21,-35 26,-42 5,-7 12,-11 18,-13 6,-3 12,-4 20,-4 7,0 15,2 22,6 10,6 18,14 22,24 4,10 4,20 2,30l35 19z"/>
  <path class="fil5" d="M2393 2146c-53,0 -98,-16 -136,-48l-48 55c51,44 112,66 183,66 110,-1 166,-48 168,-139 0,-34 -11,-64 -32,-89 -21,-26 -55,-42 -100,-48 -23,-3 -41,-5 -54,-8 -24,-4 -41,-12 -52,-24 -11,-11 -16,-24 -16,-37 0,-23 8,-40 24,-52 15,-11 34,-17 56,-17 43,1 83,13 119,37l40 -60c-44,-32 -96,-48 -155,-50 -50,0 -88,13 -115,39 -28,26 -42,59 -42,101 0,35 11,64 33,89 21,24 53,39 94,46 23,3 44,6 63,9 42,7 63,29 62,64 -1,44 -32,66 -95,67z"/>
  <path class="fil5" d="M3035 1879c3,-16 9,-29 19,-40 8,-10 18,-18 30,-25 12,-6 27,-10 44,-10 17,0 32,4 45,10 12,7 22,15 29,25 9,10 16,24 19,40 3,17 5,49 5,96 0,47 -2,79 -5,96 -4,17 -10,30 -19,40 -7,10 -17,18 -29,24 -13,7 -28,11 -45,11 -17,0 -32,-4 -44,-11 -13,-6 -23,-14 -30,-24 -9,-10 -16,-24 -19,-40 -4,-17 -5,-49 -5,-96 0,-47 2,-79 5,-96zm-67 233c3,7 6,13 10,21 12,22 30,42 56,59 25,18 57,27 94,28 38,-1 70,-10 95,-28 25,-17 43,-36 55,-59 8,-12 14,-27 17,-46 3,-19 4,-56 4,-111 0,-56 -1,-93 -4,-112 -3,-19 -9,-34 -17,-46 -11,-22 -29,-42 -55,-59 -25,-18 -57,-27 -95,-27 -38,0 -69,9 -94,27 -26,17 -44,37 -56,59 -7,12 -13,27 -16,46 -3,19 -5,56 -5,112 0,55 2,92 5,111 2,10 4,19 7,26z"/>
  <polygon class="fil5" points="3790,2215 3863,2215 3863,1800 3994,1800 3994,1735 3659,1735 3659,1800 3790,1800 "/>
  <polygon class="fil5" points="4454,1916 4456,1916 4556,2146 4616,2146 4717,1916 4718,1916 4718,2215 4791,2215 4791,1735 4722,1735 4587,2048 4450,1735 4382,1735 4382,2215 4454,2215 "/>
  <path class="fil5" d="M6399 2493c0,0 0,0 0,0 0,0 0,0 0,0l0 0c-44,-19 -80,-54 -100,-98l0 0c0,0 0,0 0,0 0,0 0,0 0,0l0 0c-20,43 -56,78 -100,98l0 0c0,0 0,0 0,0 0,0 0,0 0,0l0 0c44,19 80,54 100,98l0 0c0,0 0,0 0,0 0,0 0,0 0,0l0 0c20,-43 56,-78 100,-98l0 0z"/>
  <path class="fil5" d="M5116 2742c44,19 80,54 100,98l0 0c0,0 0,0 0,0 0,0 0,0 0,0l0 0c20,-43 56,-78 100,-98l0 0c0,0 0,0 0,0 0,0 0,0 0,0l0 0c-44,-19 -80,-54 -100,-98l0 0c0,0 0,0 0,0 0,0 0,0 0,0l0 0c-20,43 -56,78 -100,98l0 0c0,0 0,0 0,0 0,0 0,0 0,0l0 0z"/>
  <path class="fil5" d="M5402 3477c-44,-19 -80,-54 -100,-98l0 0c0,0 0,0 0,0 0,0 0,0 0,0l0 0c-20,43 -56,78 -100,98l0 0c0,0 0,0 0,0 0,0 0,0 0,0l0 0c44,19 80,54 100,98l0 0c0,0 0,0 0,0 0,0 0,0 0,0l0 0c20,-43 56,-78 100,-98l0 0c0,0 0,0 0,0 0,0 0,0 0,0l0 0z"/>
  <path class="fil5" d="M4894 3229c-44,-19 -80,-54 -100,-98l0 0c0,0 0,0 0,0 0,0 0,0 0,0l0 0c-20,43 -56,78 -100,98l0 0c0,0 0,0 0,0 0,0 0,0 0,0l0 0c44,19 80,54 100,98l0 0c0,0 0,0 0,0 0,0 0,0 0,0l0 0c20,-43 56,-78 100,-98l0 0c0,0 0,0 0,0 0,0 0,0 0,0l0 0z"/>
  <path class="fil5" d="M5213 3699c-33,-15 -60,-41 -75,-73l0 0c0,0 0,0 0,0 0,0 0,0 0,0l0 0c-15,33 -42,59 -75,73l0 0c0,0 0,0 0,0 0,0 0,0 0,0l0 0c33,15 60,41 75,73l0 0c0,0 0,0 0,0 0,0 0,0 0,0l0 0c15,-33 42,-59 75,-73l0 0c0,0 0,0 0,0 0,0 0,0 0,0l0 0z"/>
  <path class="fil5" d="M6521 2715l0 0c-33,-15 -60,-41 -75,-73l0 0c0,0 0,0 0,0 0,0 0,0 0,0l0 0c-15,33 -42,59 -75,73l0 0c0,0 0,0 0,0 0,0 0,0 0,0l0 0c33,15 60,41 75,73l0 0c0,0 0,0 0,0 0,0 0,0 0,0l0 0c15,-33 42,-59 75,-73l0 0c0,0 0,0 0,0 0,0 0,0 0,0z"/>
  <path class="fil5" d="M5853 2837c-54,-24 -98,-67 -123,-120l0 0c0,0 0,0 0,0 0,0 0,0 0,0l0 0c-25,53 -69,96 -123,120l0 0c0,0 0,0 0,0 0,0 0,0 0,0l0 0c54,24 98,67 123,120l0 0c0,0 0,0 0,0 0,0 0,0 0,0l0 0c25,-53 69,-96 123,-120l0 0c0,0 0,0 0,0 0,0 0,0 0,0l0 0z"/>
 </g>
</svg>
