<svg xmlns="http://www.w3.org/2000/svg" xmlns:xlink="http://www.w3.org/1999/xlink" version="1.1" style="" xml:space="preserve" width="64.2651934623718" height="94.89502763748169"><rect id="backgroundrect" width="100%" height="100%" x="0" y="0" fill="none" stroke="none" style="" class=""/><g class="currentLayer" style=""><title>Layer 1</title><path d="M38.920440673828125,76.83756756782532 L32.32044219970703,83.43756604194641 l-6.599999904632568,-6.599999904632568 c-0.800000011920929,-0.800000011920929 -2,-0.800000011920929 -2.799999952316284,0 s-0.800000011920929,2 0,2.799999952316284 l8,8 C31.32044219970703,88.03757214546204 31.82044219970703,88.23756909370422 32.32044219970703,88.23756909370422 s1,-0.20000000298023224 1.399999976158142,-0.6000000238418579 l8,-8 c0.800000011920929,-0.800000011920929 0.800000011920929,-2 0,-2.799999952316284 S39.72044372558594,76.03757214546204 38.920440673828125,76.83756756782532 z" id="svg_1" class=""/><path d="M41.72044372558594,65.83756756782532 c-0.800000011920929,-0.800000011920929 -2,-0.800000011920929 -2.799999952316284,0 L32.32044219970703,72.43756604194641 l-6.599999904632568,-6.599999904632568 c-0.800000011920929,-0.800000011920929 -2,-0.800000011920929 -2.799999952316284,0 s-0.800000011920929,2 0,2.799999952316284 l8,8 C31.32044219970703,77.03757214546204 31.82044219970703,77.23756909370422 32.32044219970703,77.23756909370422 s1,-0.20000000298023224 1.399999976158142,-0.6000000238418579 l8,-8 C42.520442962646484,67.83756756782532 42.520442962646484,66.63757061958313 41.72044372558594,65.83756756782532 z" id="svg_2" class=""/><path d="M50.32044219970703,42.237569093704224 V24.237569093704224 c0,-9.899999618530273 -8.100000381469727,-18 -18,-18 s-18,8.100000381469727 -18,18 v18 c0,9.899999618530273 8.100000381469727,18 18,18 S50.32044219970703,52.13757061958313 50.32044219970703,42.237569093704224 zM32.32044219970703,56.237569093704224 c-7.699999809265137,0 -14,-6.300000190734863 -14,-14 V24.237569093704224 c0,-7.699999809265137 6.300000190734863,-14 14,-14 s14,6.300000190734863 14,14 v18 C46.32044219970703,49.93756985664368 40.020442962646484,56.237569093704224 32.32044219970703,56.237569093704224 z" id="svg_3" class=""/><path d="M32.32044219970703,17.237569093704224 c-1.100000023841858,0 -2,0.8999999761581421 -2,2 v6 c0,1.100000023841858 0.8999999761581421,2 2,2 c1.100000023841858,0 2,-0.8999999761581421 2,-2 v-6 C34.32044219970703,18.137568712234497 33.420440673828125,17.237569093704224 32.32044219970703,17.237569093704224 z" id="svg_4" class=""/></g></svg>